<?xml version="1.0" standalone="no"?>
<!DOCTYPE svg PUBLIC "-//W3C//DTD SVG 20010904//EN"
 "http://www.w3.org/TR/2001/REC-SVG-20010904/DTD/svg10.dtd">
<svg version="1.0" xmlns="http://www.w3.org/2000/svg"
 width="225.000000pt" height="225.000000pt" viewBox="0 0 225.000000 225.000000"
 preserveAspectRatio="xMidYMid meet">
<metadata>
Created by potrace 1.14, written by Peter Selinger 2001-2017
</metadata>
<g transform="translate(0.000000,225.000000) scale(0.100000,-0.100000)"
fill="#000000" stroke="none">
<path d="M677 1503 c-21 -20 -4 -42 48 -63 49 -20 58 -29 90 -85 l35 -64 58 2
c52 2 57 0 60 -20 4 -25 -15 -37 -73 -47 -95 -17 -115 -26 -115 -51 0 -13 4
-26 9 -30 5 -3 85 11 177 30 168 36 194 36 194 0 0 -23 -25 -34 -125 -55 -131
-28 -132 -28 -139 -47 -11 -27 14 -45 53 -38 34 5 37 3 56 -31 22 -42 68 -74
104 -74 13 0 102 17 197 37 155 33 201 37 181 16 -4 -3 -77 -21 -162 -38 -163
-34 -200 -50 -215 -91 -30 -78 17 -138 81 -104 25 14 26 75 2 89 -10 5 -15 12
-13 15 6 5 182 46 199 46 6 0 6 -12 1 -29 -11 -40 11 -71 50 -71 40 0 65 36
51 74 -6 14 -15 26 -21 26 -5 0 -10 5 -10 10 0 6 8 10 19 10 31 0 71 39 71 69
0 50 -45 74 -111 60 -224 -51 -315 -66 -339 -57 -23 10 -19 12 45 28 39 10
129 29 200 44 155 32 189 46 209 84 8 16 20 86 27 156 13 142 7 171 -36 182
-25 6 -602 -109 -637 -127 -13 -7 -22 2 -47 45 -25 46 -39 58 -87 80 -58 27
-76 31 -87 19z m433 -204 c0 -23 -33 -41 -68 -37 -21 2 -28 9 -30 30 -3 23 1
28 25 34 15 3 33 7 38 9 16 4 35 -16 35 -36z"/>
<path d="M765 1063 c-23 -6 -45 -22 -45 -34 0 -4 7 -14 15 -22 11 -12 23 -13
57 -5 51 11 71 28 62 51 -6 17 -44 21 -89 10z"/>
</g>
</svg>
